<?xml version="1.0" encoding="utf-8" standalone="no"?>
<!DOCTYPE svg PUBLIC "-//W3C//DTD SVG 1.1//EN"
  "http://www.w3.org/Graphics/SVG/1.1/DTD/svg11.dtd">
<svg xmlns:xlink="http://www.w3.org/1999/xlink" width="864pt" height="576pt" viewBox="0 0 864 576" xmlns="http://www.w3.org/2000/svg" version="1.1">
 <metadata>
  <rdf:RDF xmlns:dc="http://purl.org/dc/elements/1.1/" xmlns:cc="http://creativecommons.org/ns#" xmlns:rdf="http://www.w3.org/1999/02/22-rdf-syntax-ns#">
   <cc:Work>
    <dc:type rdf:resource="http://purl.org/dc/dcmitype/StillImage"/>
    <dc:date>2025-10-17T17:33:37.132962</dc:date>
    <dc:format>image/svg+xml</dc:format>
    <dc:creator>
     <cc:Agent>
      <dc:title>Matplotlib v3.10.7, https://matplotlib.org/</dc:title>
     </cc:Agent>
    </dc:creator>
   </cc:Work>
  </rdf:RDF>
 </metadata>
 <defs>
  <style type="text/css">*{stroke-linejoin: round; stroke-linecap: butt}</style>
 </defs>
 <g id="figure_1">
  <g id="patch_1">
   <path d="M 0 576 
L 864 576 
L 864 0 
L 0 0 
z
" style="fill: #eeeeee"/>
  </g>
  <g id="axes_1">
   <g id="patch_2">
    <path d="M 46.55 534.04 
L 853.2 534.04 
L 853.2 24.72 
L 46.55 24.72 
z
" style="fill: #ffffff"/>
   </g>
   <g id="matplotlib.axis_1">
    <g id="xtick_1">
     <g id="line2d_1">
      <path d="M 156.547727 534.04 
L 156.547727 24.72 
" clip-path="url(#p36f961cb13)" style="fill: none; stroke: #cccccc; stroke-width: 0.75; stroke-linecap: square"/>
     </g>
     <g id="line2d_2">
      <defs>
       <path id="mdaa9b595a2" d="M 0 0 
L 0 3.5 
" style="stroke: #000000; stroke-width: 0.8"/>
      </defs>
      <g>
       <use xlink:href="#mdaa9b595a2" x="156.547727" y="534.04" style="stroke: #000000; stroke-width: 0.8"/>
      </g>
     </g>
     <g id="text_1">
      <!-- −4 -->
      <g transform="translate(149.176634 548.638438) scale(0.1 -0.1)">
       <defs>
        <path id="DejaVuSans-2212" d="M 678 2272 
L 4684 2272 
L 4684 1741 
L 678 1741 
L 678 2272 
z
" transform="scale(0.015625)"/>
        <path id="DejaVuSans-34" d="M 2419 4116 
L 825 1625 
L 2419 1625 
L 2419 4116 
z
M 2253 4666 
L 3047 4666 
L 3047 1625 
L 3713 1625 
L 3713 1100 
L 3047 1100 
L 3047 0 
L 2419 0 
L 2419 1100 
L 313 1100 
L 313 1709 
L 2253 4666 
z
" transform="scale(0.015625)"/>
       </defs>
       <use xlink:href="#DejaVuSans-2212"/>
       <use xlink:href="#DejaVuSans-34" transform="translate(83.789062 0)"/>
      </g>
     </g>
    </g>
    <g id="xtick_2">
     <g id="line2d_3">
      <path d="M 303.211364 534.04 
L 303.211364 24.72 
" clip-path="url(#p36f961cb13)" style="fill: none; stroke: #cccccc; stroke-width: 0.75; stroke-linecap: square"/>
     </g>
     <g id="line2d_4">
      <g>
       <use xlink:href="#mdaa9b595a2" x="303.211364" y="534.04" style="stroke: #000000; stroke-width: 0.8"/>
      </g>
     </g>
     <g id="text_2">
      <!-- −2 -->
      <g transform="translate(295.84027 548.638438) scale(0.1 -0.1)">
       <defs>
        <path id="DejaVuSans-32" d="M 1228 531 
L 3431 531 
L 3431 0 
L 469 0 
L 469 531 
Q 828 903 1448 1529 
Q 2069 2156 2228 2338 
Q 2531 2678 2651 2914 
Q 2772 3150 2772 3378 
Q 2772 3750 2511 3984 
Q 2250 4219 1831 4219 
Q 1534 4219 1204 4116 
Q 875 4013 500 3803 
L 500 4441 
Q 881 4594 1212 4672 
Q 1544 4750 1819 4750 
Q 2544 4750 2975 4387 
Q 3406 4025 3406 3419 
Q 3406 3131 3298 2873 
Q 3191 2616 2906 2266 
Q 2828 2175 2409 1742 
Q 1991 1309 1228 531 
z
" transform="scale(0.015625)"/>
       </defs>
       <use xlink:href="#DejaVuSans-2212"/>
       <use xlink:href="#DejaVuSans-32" transform="translate(83.789062 0)"/>
      </g>
     </g>
    </g>
    <g id="xtick_3">
     <g id="line2d_5">
      <path d="M 449.875 534.04 
L 449.875 24.72 
" clip-path="url(#p36f961cb13)" style="fill: none; stroke: #cccccc; stroke-width: 0.75; stroke-linecap: square"/>
     </g>
     <g id="line2d_6">
      <g>
       <use xlink:href="#mdaa9b595a2" x="449.875" y="534.04" style="stroke: #000000; stroke-width: 0.8"/>
      </g>
     </g>
     <g id="text_3">
      <!-- 0 -->
      <g transform="translate(446.69375 548.638438) scale(0.1 -0.1)">
       <defs>
        <path id="DejaVuSans-30" d="M 2034 4250 
Q 1547 4250 1301 3770 
Q 1056 3291 1056 2328 
Q 1056 1369 1301 889 
Q 1547 409 2034 409 
Q 2525 409 2770 889 
Q 3016 1369 3016 2328 
Q 3016 3291 2770 3770 
Q 2525 4250 2034 4250 
z
M 2034 4750 
Q 2819 4750 3233 4129 
Q 3647 3509 3647 2328 
Q 3647 1150 3233 529 
Q 2819 -91 2034 -91 
Q 1250 -91 836 529 
Q 422 1150 422 2328 
Q 422 3509 836 4129 
Q 1250 4750 2034 4750 
z
" transform="scale(0.015625)"/>
       </defs>
       <use xlink:href="#DejaVuSans-30"/>
      </g>
     </g>
    </g>
    <g id="xtick_4">
     <g id="line2d_7">
      <path d="M 596.538636 534.04 
L 596.538636 24.72 
" clip-path="url(#p36f961cb13)" style="fill: none; stroke: #cccccc; stroke-width: 0.75; stroke-linecap: square"/>
     </g>
     <g id="line2d_8">
      <g>
       <use xlink:href="#mdaa9b595a2" x="596.538636" y="534.04" style="stroke: #000000; stroke-width: 0.8"/>
      </g>
     </g>
     <g id="text_4">
      <!-- 2 -->
      <g transform="translate(593.357386 548.638438) scale(0.1 -0.1)">
       <use xlink:href="#DejaVuSans-32"/>
      </g>
     </g>
    </g>
    <g id="xtick_5">
     <g id="line2d_9">
      <path d="M 743.202273 534.04 
L 743.202273 24.72 
" clip-path="url(#p36f961cb13)" style="fill: none; stroke: #cccccc; stroke-width: 0.75; stroke-linecap: square"/>
     </g>
     <g id="line2d_10">
      <g>
       <use xlink:href="#mdaa9b595a2" x="743.202273" y="534.04" style="stroke: #000000; stroke-width: 0.8"/>
      </g>
     </g>
     <g id="text_5">
      <!-- 4 -->
      <g transform="translate(740.021023 548.638438) scale(0.1 -0.1)">
       <use xlink:href="#DejaVuSans-34"/>
      </g>
     </g>
    </g>
    <g id="text_6">
     <!-- X -->
     <g style="fill: #333333" transform="translate(446.45 562.316563) scale(0.1 -0.1)">
      <defs>
       <path id="DejaVuSans-58" d="M 403 4666 
L 1081 4666 
L 2241 2931 
L 3406 4666 
L 4084 4666 
L 2584 2425 
L 4184 0 
L 3506 0 
L 2194 1984 
L 872 0 
L 191 0 
L 1856 2491 
L 403 4666 
z
" transform="scale(0.015625)"/>
      </defs>
      <use xlink:href="#DejaVuSans-58"/>
     </g>
    </g>
   </g>
   <g id="matplotlib.axis_2">
    <g id="ytick_1">
     <g id="line2d_11">
      <path d="M 46.55 496.242555 
L 853.2 496.242555 
" clip-path="url(#p36f961cb13)" style="fill: none; stroke: #cccccc; stroke-width: 0.75; stroke-linecap: square"/>
     </g>
     <g id="line2d_12">
      <defs>
       <path id="me465a4cb95" d="M 0 0 
L -3.5 0 
" style="stroke: #000000; stroke-width: 0.8"/>
      </defs>
      <g>
       <use xlink:href="#me465a4cb95" x="46.55" y="496.242555" style="stroke: #000000; stroke-width: 0.8"/>
      </g>
     </g>
     <g id="text_7">
      <!-- −4 -->
      <g transform="translate(24.807812 500.041773) scale(0.1 -0.1)">
       <use xlink:href="#DejaVuSans-2212"/>
       <use xlink:href="#DejaVuSans-34" transform="translate(83.789062 0)"/>
      </g>
     </g>
    </g>
    <g id="ytick_2">
     <g id="line2d_13">
      <path d="M 46.55 387.811277 
L 853.2 387.811277 
" clip-path="url(#p36f961cb13)" style="fill: none; stroke: #cccccc; stroke-width: 0.75; stroke-linecap: square"/>
     </g>
     <g id="line2d_14">
      <g>
       <use xlink:href="#me465a4cb95" x="46.55" y="387.811277" style="stroke: #000000; stroke-width: 0.8"/>
      </g>
     </g>
     <g id="text_8">
      <!-- −2 -->
      <g transform="translate(24.807812 391.610496) scale(0.1 -0.1)">
       <use xlink:href="#DejaVuSans-2212"/>
       <use xlink:href="#DejaVuSans-32" transform="translate(83.789062 0)"/>
      </g>
     </g>
    </g>
    <g id="ytick_3">
     <g id="line2d_15">
      <path d="M 46.55 279.38 
L 853.2 279.38 
" clip-path="url(#p36f961cb13)" style="fill: none; stroke: #cccccc; stroke-width: 0.75; stroke-linecap: square"/>
     </g>
     <g id="line2d_16">
      <g>
       <use xlink:href="#me465a4cb95" x="46.55" y="279.38" style="stroke: #000000; stroke-width: 0.8"/>
      </g>
     </g>
     <g id="text_9">
      <!-- 0 -->
      <g transform="translate(33.1875 283.179219) scale(0.1 -0.1)">
       <use xlink:href="#DejaVuSans-30"/>
      </g>
     </g>
    </g>
    <g id="ytick_4">
     <g id="line2d_17">
      <path d="M 46.55 170.948723 
L 853.2 170.948723 
" clip-path="url(#p36f961cb13)" style="fill: none; stroke: #cccccc; stroke-width: 0.75; stroke-linecap: square"/>
     </g>
     <g id="line2d_18">
      <g>
       <use xlink:href="#me465a4cb95" x="46.55" y="170.948723" style="stroke: #000000; stroke-width: 0.8"/>
      </g>
     </g>
     <g id="text_10">
      <!-- 2 -->
      <g transform="translate(33.1875 174.747941) scale(0.1 -0.1)">
       <use xlink:href="#DejaVuSans-32"/>
      </g>
     </g>
    </g>
    <g id="ytick_5">
     <g id="line2d_19">
      <path d="M 46.55 62.517445 
L 853.2 62.517445 
" clip-path="url(#p36f961cb13)" style="fill: none; stroke: #cccccc; stroke-width: 0.75; stroke-linecap: square"/>
     </g>
     <g id="line2d_20">
      <g>
       <use xlink:href="#me465a4cb95" x="46.55" y="62.517445" style="stroke: #000000; stroke-width: 0.8"/>
      </g>
     </g>
     <g id="text_11">
      <!-- 4 -->
      <g transform="translate(33.1875 66.316664) scale(0.1 -0.1)">
       <use xlink:href="#DejaVuSans-34"/>
      </g>
     </g>
    </g>
    <g id="text_12">
     <!-- Y -->
     <g style="fill: #333333" transform="translate(18.728125 282.433906) rotate(-90) scale(0.1 -0.1)">
      <defs>
       <path id="DejaVuSans-59" d="M -13 4666 
L 666 4666 
L 1959 2747 
L 3244 4666 
L 3922 4666 
L 2272 2222 
L 2272 0 
L 1638 0 
L 1638 2222 
L -13 4666 
z
" transform="scale(0.015625)"/>
      </defs>
      <use xlink:href="#DejaVuSans-59"/>
     </g>
    </g>
   </g>
   <g id="line2d_21">
    <path d="M 83.215909 62.635092 
L 90.549091 48.81979 
L 97.882273 49.408565 
L 105.215455 65.320363 
L 112.548636 96.185455 
L 119.881818 140.336056 
L 127.215 194.912673 
L 134.548182 256.078386 
L 141.881364 319.323529 
L 149.214545 379.835039 
L 156.547727 432.898778 
L 163.880909 474.299929 
L 171.214091 500.68645 
L 178.547273 509.863573 
L 185.880455 500.993144 
L 193.213636 474.679762 
L 200.546818 432.935477 
L 207.88 379.025347 
L 215.213182 317.206501 
L 222.546364 252.382704 
L 229.879545 189.703731 
L 237.212727 134.143747 
L 244.545909 90.094672 
L 251.879091 61.009246 
L 259.212273 49.124124 
L 266.545455 55.286362 
L 273.878636 78.897636 
L 281.211818 117.980256 
L 288.545 169.358479 
L 295.878182 228.938644 
L 303.211364 292.063149 
L 310.544545 353.907036 
L 317.877727 409.882475 
L 325.210909 456.015996 
L 332.544091 489.26604 
L 339.877273 507.753909 
L 347.210455 510.889091 
L 354.543636 499.379439 
L 361.876818 475.127015 
L 369.21 441.020525 
L 376.543182 400.644434 
L 383.876364 357.932092 
L 391.209545 316.794958 
L 398.542727 280.761905 
L 405.875909 252.661327 
L 413.209091 234.374652 
L 420.542273 226.683118 
L 427.875455 229.221015 
L 435.208636 240.538756 
L 442.541818 258.269052 
L 449.875 279.38 
L 457.208182 300.490948 
L 464.541364 318.221244 
L 471.874545 329.538985 
L 479.207727 332.076882 
L 486.540909 324.385348 
L 493.874091 306.098673 
L 501.207273 277.998095 
L 508.540455 241.965042 
L 515.873636 200.827908 
L 523.206818 158.115566 
L 530.54 117.739475 
L 537.873182 83.632985 
L 545.206364 59.380561 
L 552.539545 47.870909 
L 559.872727 51.006091 
L 567.205909 69.49396 
L 574.539091 102.744004 
L 581.872273 148.877525 
L 589.205455 204.852964 
L 596.538636 266.696851 
L 603.871818 329.821356 
L 611.205 389.401521 
L 618.538182 440.779744 
L 625.871364 479.862364 
L 633.204545 503.473638 
L 640.537727 509.635876 
L 647.870909 497.750754 
L 655.204091 468.665328 
L 662.537273 424.616253 
L 669.870455 369.056269 
L 677.203636 306.377296 
L 684.536818 241.553499 
L 691.87 179.734653 
L 699.203182 125.824523 
L 706.536364 84.080238 
L 713.869545 57.766856 
L 721.202727 48.896427 
L 728.535909 58.07355 
L 735.869091 84.460071 
L 743.202273 125.861222 
L 750.535455 178.924961 
L 757.868636 239.436471 
L 765.201818 302.681614 
L 772.535 363.847327 
L 779.868182 418.423944 
L 787.201364 462.574545 
L 794.534545 493.439637 
L 801.867727 509.351435 
L 809.200909 509.94021 
L 816.534091 496.124908 
" clip-path="url(#p36f961cb13)" style="fill: none; stroke-dasharray: 7.4,3.2; stroke-dashoffset: 0; stroke: #008000; stroke-width: 2"/>
    <defs>
     <path id="m9cabeb851a" d="M 0 1.5 
C 0.397805 1.5 0.77937 1.341951 1.06066 1.06066 
C 1.341951 0.77937 1.5 0.397805 1.5 0 
C 1.5 -0.397805 1.341951 -0.77937 1.06066 -1.06066 
C 0.77937 -1.341951 0.397805 -1.5 0 -1.5 
C -0.397805 -1.5 -0.77937 -1.341951 -1.06066 -1.06066 
C -1.341951 -0.77937 -1.5 -0.397805 -1.5 0 
C -1.5 0.397805 -1.341951 0.77937 -1.06066 1.06066 
C -0.77937 1.341951 -0.397805 1.5 0 1.5 
z
" style="stroke: #008000"/>
    </defs>
    <g clip-path="url(#p36f961cb13)">
     <use xlink:href="#m9cabeb851a" x="83.215909" y="62.635092" style="fill: #008000; stroke: #008000"/>
     <use xlink:href="#m9cabeb851a" x="90.549091" y="48.81979" style="fill: #008000; stroke: #008000"/>
     <use xlink:href="#m9cabeb851a" x="97.882273" y="49.408565" style="fill: #008000; stroke: #008000"/>
     <use xlink:href="#m9cabeb851a" x="105.215455" y="65.320363" style="fill: #008000; stroke: #008000"/>
     <use xlink:href="#m9cabeb851a" x="112.548636" y="96.185455" style="fill: #008000; stroke: #008000"/>
     <use xlink:href="#m9cabeb851a" x="119.881818" y="140.336056" style="fill: #008000; stroke: #008000"/>
     <use xlink:href="#m9cabeb851a" x="127.215" y="194.912673" style="fill: #008000; stroke: #008000"/>
     <use xlink:href="#m9cabeb851a" x="134.548182" y="256.078386" style="fill: #008000; stroke: #008000"/>
     <use xlink:href="#m9cabeb851a" x="141.881364" y="319.323529" style="fill: #008000; stroke: #008000"/>
     <use xlink:href="#m9cabeb851a" x="149.214545" y="379.835039" style="fill: #008000; stroke: #008000"/>
     <use xlink:href="#m9cabeb851a" x="156.547727" y="432.898778" style="fill: #008000; stroke: #008000"/>
     <use xlink:href="#m9cabeb851a" x="163.880909" y="474.299929" style="fill: #008000; stroke: #008000"/>
     <use xlink:href="#m9cabeb851a" x="171.214091" y="500.68645" style="fill: #008000; stroke: #008000"/>
     <use xlink:href="#m9cabeb851a" x="178.547273" y="509.863573" style="fill: #008000; stroke: #008000"/>
     <use xlink:href="#m9cabeb851a" x="185.880455" y="500.993144" style="fill: #008000; stroke: #008000"/>
     <use xlink:href="#m9cabeb851a" x="193.213636" y="474.679762" style="fill: #008000; stroke: #008000"/>
     <use xlink:href="#m9cabeb851a" x="200.546818" y="432.935477" style="fill: #008000; stroke: #008000"/>
     <use xlink:href="#m9cabeb851a" x="207.88" y="379.025347" style="fill: #008000; stroke: #008000"/>
     <use xlink:href="#m9cabeb851a" x="215.213182" y="317.206501" style="fill: #008000; stroke: #008000"/>
     <use xlink:href="#m9cabeb851a" x="222.546364" y="252.382704" style="fill: #008000; stroke: #008000"/>
     <use xlink:href="#m9cabeb851a" x="229.879545" y="189.703731" style="fill: #008000; stroke: #008000"/>
     <use xlink:href="#m9cabeb851a" x="237.212727" y="134.143747" style="fill: #008000; stroke: #008000"/>
     <use xlink:href="#m9cabeb851a" x="244.545909" y="90.094672" style="fill: #008000; stroke: #008000"/>
     <use xlink:href="#m9cabeb851a" x="251.879091" y="61.009246" style="fill: #008000; stroke: #008000"/>
     <use xlink:href="#m9cabeb851a" x="259.212273" y="49.124124" style="fill: #008000; stroke: #008000"/>
     <use xlink:href="#m9cabeb851a" x="266.545455" y="55.286362" style="fill: #008000; stroke: #008000"/>
     <use xlink:href="#m9cabeb851a" x="273.878636" y="78.897636" style="fill: #008000; stroke: #008000"/>
     <use xlink:href="#m9cabeb851a" x="281.211818" y="117.980256" style="fill: #008000; stroke: #008000"/>
     <use xlink:href="#m9cabeb851a" x="288.545" y="169.358479" style="fill: #008000; stroke: #008000"/>
     <use xlink:href="#m9cabeb851a" x="295.878182" y="228.938644" style="fill: #008000; stroke: #008000"/>
     <use xlink:href="#m9cabeb851a" x="303.211364" y="292.063149" style="fill: #008000; stroke: #008000"/>
     <use xlink:href="#m9cabeb851a" x="310.544545" y="353.907036" style="fill: #008000; stroke: #008000"/>
     <use xlink:href="#m9cabeb851a" x="317.877727" y="409.882475" style="fill: #008000; stroke: #008000"/>
     <use xlink:href="#m9cabeb851a" x="325.210909" y="456.015996" style="fill: #008000; stroke: #008000"/>
     <use xlink:href="#m9cabeb851a" x="332.544091" y="489.26604" style="fill: #008000; stroke: #008000"/>
     <use xlink:href="#m9cabeb851a" x="339.877273" y="507.753909" style="fill: #008000; stroke: #008000"/>
     <use xlink:href="#m9cabeb851a" x="347.210455" y="510.889091" style="fill: #008000; stroke: #008000"/>
     <use xlink:href="#m9cabeb851a" x="354.543636" y="499.379439" style="fill: #008000; stroke: #008000"/>
     <use xlink:href="#m9cabeb851a" x="361.876818" y="475.127015" style="fill: #008000; stroke: #008000"/>
     <use xlink:href="#m9cabeb851a" x="369.21" y="441.020525" style="fill: #008000; stroke: #008000"/>
     <use xlink:href="#m9cabeb851a" x="376.543182" y="400.644434" style="fill: #008000; stroke: #008000"/>
     <use xlink:href="#m9cabeb851a" x="383.876364" y="357.932092" style="fill: #008000; stroke: #008000"/>
     <use xlink:href="#m9cabeb851a" x="391.209545" y="316.794958" style="fill: #008000; stroke: #008000"/>
     <use xlink:href="#m9cabeb851a" x="398.542727" y="280.761905" style="fill: #008000; stroke: #008000"/>
     <use xlink:href="#m9cabeb851a" x="405.875909" y="252.661327" style="fill: #008000; stroke: #008000"/>
     <use xlink:href="#m9cabeb851a" x="413.209091" y="234.374652" style="fill: #008000; stroke: #008000"/>
     <use xlink:href="#m9cabeb851a" x="420.542273" y="226.683118" style="fill: #008000; stroke: #008000"/>
     <use xlink:href="#m9cabeb851a" x="427.875455" y="229.221015" style="fill: #008000; stroke: #008000"/>
     <use xlink:href="#m9cabeb851a" x="435.208636" y="240.538756" style="fill: #008000; stroke: #008000"/>
     <use xlink:href="#m9cabeb851a" x="442.541818" y="258.269052" style="fill: #008000; stroke: #008000"/>
     <use xlink:href="#m9cabeb851a" x="449.875" y="279.38" style="fill: #008000; stroke: #008000"/>
     <use xlink:href="#m9cabeb851a" x="457.208182" y="300.490948" style="fill: #008000; stroke: #008000"/>
     <use xlink:href="#m9cabeb851a" x="464.541364" y="318.221244" style="fill: #008000; stroke: #008000"/>
     <use xlink:href="#m9cabeb851a" x="471.874545" y="329.538985" style="fill: #008000; stroke: #008000"/>
     <use xlink:href="#m9cabeb851a" x="479.207727" y="332.076882" style="fill: #008000; stroke: #008000"/>
     <use xlink:href="#m9cabeb851a" x="486.540909" y="324.385348" style="fill: #008000; stroke: #008000"/>
     <use xlink:href="#m9cabeb851a" x="493.874091" y="306.098673" style="fill: #008000; stroke: #008000"/>
     <use xlink:href="#m9cabeb851a" x="501.207273" y="277.998095" style="fill: #008000; stroke: #008000"/>
     <use xlink:href="#m9cabeb851a" x="508.540455" y="241.965042" style="fill: #008000; stroke: #008000"/>
     <use xlink:href="#m9cabeb851a" x="515.873636" y="200.827908" style="fill: #008000; stroke: #008000"/>
     <use xlink:href="#m9cabeb851a" x="523.206818" y="158.115566" style="fill: #008000; stroke: #008000"/>
     <use xlink:href="#m9cabeb851a" x="530.54" y="117.739475" style="fill: #008000; stroke: #008000"/>
     <use xlink:href="#m9cabeb851a" x="537.873182" y="83.632985" style="fill: #008000; stroke: #008000"/>
     <use xlink:href="#m9cabeb851a" x="545.206364" y="59.380561" style="fill: #008000; stroke: #008000"/>
     <use xlink:href="#m9cabeb851a" x="552.539545" y="47.870909" style="fill: #008000; stroke: #008000"/>
     <use xlink:href="#m9cabeb851a" x="559.872727" y="51.006091" style="fill: #008000; stroke: #008000"/>
     <use xlink:href="#m9cabeb851a" x="567.205909" y="69.49396" style="fill: #008000; stroke: #008000"/>
     <use xlink:href="#m9cabeb851a" x="574.539091" y="102.744004" style="fill: #008000; stroke: #008000"/>
     <use xlink:href="#m9cabeb851a" x="581.872273" y="148.877525" style="fill: #008000; stroke: #008000"/>
     <use xlink:href="#m9cabeb851a" x="589.205455" y="204.852964" style="fill: #008000; stroke: #008000"/>
     <use xlink:href="#m9cabeb851a" x="596.538636" y="266.696851" style="fill: #008000; stroke: #008000"/>
     <use xlink:href="#m9cabeb851a" x="603.871818" y="329.821356" style="fill: #008000; stroke: #008000"/>
     <use xlink:href="#m9cabeb851a" x="611.205" y="389.401521" style="fill: #008000; stroke: #008000"/>
     <use xlink:href="#m9cabeb851a" x="618.538182" y="440.779744" style="fill: #008000; stroke: #008000"/>
     <use xlink:href="#m9cabeb851a" x="625.871364" y="479.862364" style="fill: #008000; stroke: #008000"/>
     <use xlink:href="#m9cabeb851a" x="633.204545" y="503.473638" style="fill: #008000; stroke: #008000"/>
     <use xlink:href="#m9cabeb851a" x="640.537727" y="509.635876" style="fill: #008000; stroke: #008000"/>
     <use xlink:href="#m9cabeb851a" x="647.870909" y="497.750754" style="fill: #008000; stroke: #008000"/>
     <use xlink:href="#m9cabeb851a" x="655.204091" y="468.665328" style="fill: #008000; stroke: #008000"/>
     <use xlink:href="#m9cabeb851a" x="662.537273" y="424.616253" style="fill: #008000; stroke: #008000"/>
     <use xlink:href="#m9cabeb851a" x="669.870455" y="369.056269" style="fill: #008000; stroke: #008000"/>
     <use xlink:href="#m9cabeb851a" x="677.203636" y="306.377296" style="fill: #008000; stroke: #008000"/>
     <use xlink:href="#m9cabeb851a" x="684.536818" y="241.553499" style="fill: #008000; stroke: #008000"/>
     <use xlink:href="#m9cabeb851a" x="691.87" y="179.734653" style="fill: #008000; stroke: #008000"/>
     <use xlink:href="#m9cabeb851a" x="699.203182" y="125.824523" style="fill: #008000; stroke: #008000"/>
     <use xlink:href="#m9cabeb851a" x="706.536364" y="84.080238" style="fill: #008000; stroke: #008000"/>
     <use xlink:href="#m9cabeb851a" x="713.869545" y="57.766856" style="fill: #008000; stroke: #008000"/>
     <use xlink:href="#m9cabeb851a" x="721.202727" y="48.896427" style="fill: #008000; stroke: #008000"/>
     <use xlink:href="#m9cabeb851a" x="728.535909" y="58.07355" style="fill: #008000; stroke: #008000"/>
     <use xlink:href="#m9cabeb851a" x="735.869091" y="84.460071" style="fill: #008000; stroke: #008000"/>
     <use xlink:href="#m9cabeb851a" x="743.202273" y="125.861222" style="fill: #008000; stroke: #008000"/>
     <use xlink:href="#m9cabeb851a" x="750.535455" y="178.924961" style="fill: #008000; stroke: #008000"/>
     <use xlink:href="#m9cabeb851a" x="757.868636" y="239.436471" style="fill: #008000; stroke: #008000"/>
     <use xlink:href="#m9cabeb851a" x="765.201818" y="302.681614" style="fill: #008000; stroke: #008000"/>
     <use xlink:href="#m9cabeb851a" x="772.535" y="363.847327" style="fill: #008000; stroke: #008000"/>
     <use xlink:href="#m9cabeb851a" x="779.868182" y="418.423944" style="fill: #008000; stroke: #008000"/>
     <use xlink:href="#m9cabeb851a" x="787.201364" y="462.574545" style="fill: #008000; stroke: #008000"/>
     <use xlink:href="#m9cabeb851a" x="794.534545" y="493.439637" style="fill: #008000; stroke: #008000"/>
     <use xlink:href="#m9cabeb851a" x="801.867727" y="509.351435" style="fill: #008000; stroke: #008000"/>
     <use xlink:href="#m9cabeb851a" x="809.200909" y="509.94021" style="fill: #008000; stroke: #008000"/>
     <use xlink:href="#m9cabeb851a" x="816.534091" y="496.124908" style="fill: #008000; stroke: #008000"/>
    </g>
   </g>
   <g id="line2d_22">
    <path d="M 46.55 279.38 
L 853.2 279.38 
" clip-path="url(#p36f961cb13)" style="fill: none; stroke: #000000; stroke-linecap: square"/>
   </g>
   <g id="line2d_23">
    <path d="M 449.875 534.04 
L 449.875 24.72 
" clip-path="url(#p36f961cb13)" style="fill: none; stroke: #000000; stroke-linecap: square"/>
   </g>
   <g id="patch_3">
    <path d="M 46.55 534.04 
L 46.55 24.72 
" style="fill: none; stroke: #000000; stroke-width: 0.8; stroke-linejoin: miter; stroke-linecap: square"/>
   </g>
   <g id="patch_4">
    <path d="M 853.2 534.04 
L 853.2 24.72 
" style="fill: none; stroke: #000000; stroke-width: 0.8; stroke-linejoin: miter; stroke-linecap: square"/>
   </g>
   <g id="patch_5">
    <path d="M 46.55 534.04 
L 853.2 534.04 
" style="fill: none; stroke: #000000; stroke-width: 0.8; stroke-linejoin: miter; stroke-linecap: square"/>
   </g>
   <g id="patch_6">
    <path d="M 46.55 24.72 
L 853.2 24.72 
" style="fill: none; stroke: #000000; stroke-width: 0.8; stroke-linejoin: miter; stroke-linecap: square"/>
   </g>
   <g id="text_13">
    <!-- График функции F(x) -->
    <g transform="translate(387.404688 18.72) scale(0.1 -0.1)">
     <defs>
      <path id="DejaVuSans-Bold-413" d="M 588 0 
L 588 4666 
L 3903 4666 
L 3903 3756 
L 1791 3756 
L 1791 0 
L 588 0 
z
" transform="scale(0.015625)"/>
      <path id="DejaVuSans-Bold-440" d="M 1656 506 
L 1656 -1331 
L 538 -1331 
L 538 3500 
L 1656 3500 
L 1656 2988 
Q 1888 3294 2169 3439 
Q 2450 3584 2816 3584 
Q 3463 3584 3878 3070 
Q 4294 2556 4294 1747 
Q 4294 938 3878 423 
Q 3463 -91 2816 -91 
Q 2450 -91 2169 54 
Q 1888 200 1656 506 
z
M 2400 2772 
Q 2041 2772 1848 2508 
Q 1656 2244 1656 1747 
Q 1656 1250 1848 986 
Q 2041 722 2400 722 
Q 2759 722 2948 984 
Q 3138 1247 3138 1747 
Q 3138 2247 2948 2509 
Q 2759 2772 2400 2772 
z
" transform="scale(0.015625)"/>
      <path id="DejaVuSans-Bold-430" d="M 2106 1575 
Q 1756 1575 1579 1456 
Q 1403 1338 1403 1106 
Q 1403 894 1545 773 
Q 1688 653 1941 653 
Q 2256 653 2472 879 
Q 2688 1106 2688 1447 
L 2688 1575 
L 2106 1575 
z
M 3816 1997 
L 3816 0 
L 2688 0 
L 2688 519 
Q 2463 200 2181 54 
Q 1900 -91 1497 -91 
Q 953 -91 614 226 
Q 275 544 275 1050 
Q 275 1666 698 1953 
Q 1122 2241 2028 2241 
L 2688 2241 
L 2688 2328 
Q 2688 2594 2478 2717 
Q 2269 2841 1825 2841 
Q 1466 2841 1156 2769 
Q 847 2697 581 2553 
L 581 3406 
Q 941 3494 1303 3539 
Q 1666 3584 2028 3584 
Q 2975 3584 3395 3211 
Q 3816 2838 3816 1997 
z
" transform="scale(0.015625)"/>
      <path id="DejaVuSans-Bold-444" d="M 2091 2772 
Q 1888 2772 1698 2509 
Q 1509 2247 1509 1747 
Q 1509 1247 1698 984 
Q 1888 722 2091 722 
Q 2425 722 2616 953 
L 2616 2541 
Q 2425 2772 2091 2772 
z
M 2616 4863 
L 3734 4863 
L 3734 3356 
Q 4066 3584 4519 3584 
Q 5166 3584 5581 3070 
Q 5997 2556 5997 1747 
Q 5997 938 5581 423 
Q 5166 -91 4519 -91 
Q 4066 -91 3734 138 
L 3734 -1331 
L 2616 -1331 
L 2616 138 
Q 2284 -91 1831 -91 
Q 1184 -91 768 423 
Q 353 938 353 1747 
Q 353 2556 768 3070 
Q 1184 3584 1831 3584 
Q 2284 3584 2616 3356 
L 2616 4863 
z
M 4259 2772 
Q 3925 2772 3734 2541 
L 3734 953 
Q 3925 722 4259 722 
Q 4463 722 4652 984 
Q 4841 1247 4841 1747 
Q 4841 2247 4652 2509 
Q 4463 2772 4259 2772 
z
" transform="scale(0.015625)"/>
      <path id="DejaVuSans-Bold-438" d="M 3947 3500 
L 3947 0 
L 2828 0 
L 2828 1863 
L 1700 0 
L 538 0 
L 538 3500 
L 1656 3500 
L 1656 1638 
L 2784 3500 
L 3947 3500 
z
" transform="scale(0.015625)"/>
      <path id="DejaVuSans-Bold-43a" d="M 538 3500 
L 1656 3500 
L 1656 2316 
L 2903 3500 
L 4128 3500 
L 2634 2078 
L 4250 0 
L 3094 0 
L 1972 1447 
L 1656 1147 
L 1656 0 
L 538 0 
L 538 3500 
z
" transform="scale(0.015625)"/>
      <path id="DejaVuSans-Bold-20" transform="scale(0.015625)"/>
      <path id="DejaVuSans-Bold-443" d="M 78 3500 
L 1197 3500 
L 2138 1125 
L 2938 3500 
L 4056 3500 
L 2584 -331 
Q 2363 -916 2067 -1148 
Q 1772 -1381 1288 -1381 
L 641 -1381 
L 641 -647 
L 991 -647 
Q 1275 -647 1404 -556 
Q 1534 -466 1606 -231 
L 1638 -134 
L 78 3500 
z
" transform="scale(0.015625)"/>
      <path id="DejaVuSans-Bold-43d" d="M 538 3500 
L 1656 3500 
L 1656 2169 
L 2766 2169 
L 2766 3500 
L 3884 3500 
L 3884 0 
L 2766 0 
L 2766 1478 
L 1656 1478 
L 1656 0 
L 538 0 
L 538 3500 
z
" transform="scale(0.015625)"/>
      <path id="DejaVuSans-Bold-446" d="M 3666 -884 
L 3666 0 
L 538 0 
L 538 3500 
L 1656 3500 
L 1656 800 
L 2766 800 
L 2766 3500 
L 3884 3500 
L 3884 800 
L 4466 800 
L 4466 -884 
L 3666 -884 
z
" transform="scale(0.015625)"/>
      <path id="DejaVuSans-Bold-46" d="M 588 4666 
L 3834 4666 
L 3834 3756 
L 1791 3756 
L 1791 2888 
L 3713 2888 
L 3713 1978 
L 1791 1978 
L 1791 0 
L 588 0 
L 588 4666 
z
" transform="scale(0.015625)"/>
      <path id="DejaVuSans-Bold-28" d="M 2413 -844 
L 1484 -844 
Q 1006 -72 778 623 
Q 550 1319 550 2003 
Q 550 2688 779 3389 
Q 1009 4091 1484 4856 
L 2413 4856 
Q 2013 4116 1813 3408 
Q 1613 2700 1613 2009 
Q 1613 1319 1811 609 
Q 2009 -100 2413 -844 
z
" transform="scale(0.015625)"/>
      <path id="DejaVuSans-Bold-78" d="M 1422 1791 
L 159 3500 
L 1344 3500 
L 2059 2463 
L 2784 3500 
L 3969 3500 
L 2706 1797 
L 4031 0 
L 2847 0 
L 2059 1106 
L 1281 0 
L 97 0 
L 1422 1791 
z
" transform="scale(0.015625)"/>
      <path id="DejaVuSans-Bold-29" d="M 513 -844 
Q 913 -100 1113 609 
Q 1313 1319 1313 2009 
Q 1313 2700 1113 3408 
Q 913 4116 513 4856 
L 1441 4856 
Q 1916 4091 2145 3389 
Q 2375 2688 2375 2003 
Q 2375 1319 2147 623 
Q 1919 -72 1441 -844 
L 513 -844 
z
" transform="scale(0.015625)"/>
     </defs>
     <use xlink:href="#DejaVuSans-Bold-413"/>
     <use xlink:href="#DejaVuSans-Bold-440" transform="translate(63.720703 0)"/>
     <use xlink:href="#DejaVuSans-Bold-430" transform="translate(135.302734 0)"/>
     <use xlink:href="#DejaVuSans-Bold-444" transform="translate(202.783203 0)"/>
     <use xlink:href="#DejaVuSans-Bold-438" transform="translate(302.001953 0)"/>
     <use xlink:href="#DejaVuSans-Bold-43a" transform="translate(372.070312 0)"/>
     <use xlink:href="#DejaVuSans-Bold-20" transform="translate(439.941406 0)"/>
     <use xlink:href="#DejaVuSans-Bold-444" transform="translate(474.755859 0)"/>
     <use xlink:href="#DejaVuSans-Bold-443" transform="translate(573.974609 0)"/>
     <use xlink:href="#DejaVuSans-Bold-43d" transform="translate(639.160156 0)"/>
     <use xlink:href="#DejaVuSans-Bold-43a" transform="translate(708.251953 0)"/>
     <use xlink:href="#DejaVuSans-Bold-446" transform="translate(776.123047 0)"/>
     <use xlink:href="#DejaVuSans-Bold-438" transform="translate(850.244141 0)"/>
     <use xlink:href="#DejaVuSans-Bold-438" transform="translate(920.3125 0)"/>
     <use xlink:href="#DejaVuSans-Bold-20" transform="translate(990.380859 0)"/>
     <use xlink:href="#DejaVuSans-Bold-46" transform="translate(1025.195312 0)"/>
     <use xlink:href="#DejaVuSans-Bold-28" transform="translate(1093.505859 0)"/>
     <use xlink:href="#DejaVuSans-Bold-78" transform="translate(1139.208984 0)"/>
     <use xlink:href="#DejaVuSans-Bold-29" transform="translate(1203.710938 0)"/>
    </g>
   </g>
   <g id="legend_1">
    <g id="patch_7">
     <path d="M 794.726562 47.398125 
L 846.2 47.398125 
Q 848.2 47.398125 848.2 45.398125 
L 848.2 31.72 
Q 848.2 29.72 846.2 29.72 
L 794.726562 29.72 
Q 792.726562 29.72 792.726562 31.72 
L 792.726562 45.398125 
Q 792.726562 47.398125 794.726562 47.398125 
z
" style="fill: #ffffff; opacity: 0.8; stroke: #cccccc; stroke-linejoin: miter"/>
    </g>
    <g id="line2d_24">
     <path d="M 796.726562 37.818437 
L 806.726562 37.818437 
L 816.726562 37.818437 
" style="fill: none; stroke-dasharray: 7.4,3.2; stroke-dashoffset: 0; stroke: #008000; stroke-width: 2"/>
     <g>
      <use xlink:href="#m9cabeb851a" x="806.726562" y="37.818437" style="fill: #008000; stroke: #008000"/>
     </g>
    </g>
    <g id="text_14">
     <!-- F(x) -->
     <g transform="translate(824.726562 41.318437) scale(0.1 -0.1)">
      <defs>
       <path id="DejaVuSans-46" d="M 628 4666 
L 3309 4666 
L 3309 4134 
L 1259 4134 
L 1259 2759 
L 3109 2759 
L 3109 2228 
L 1259 2228 
L 1259 0 
L 628 0 
L 628 4666 
z
" transform="scale(0.015625)"/>
       <path id="DejaVuSans-28" d="M 1984 4856 
Q 1566 4138 1362 3434 
Q 1159 2731 1159 2009 
Q 1159 1288 1364 580 
Q 1569 -128 1984 -844 
L 1484 -844 
Q 1016 -109 783 600 
Q 550 1309 550 2009 
Q 550 2706 781 3412 
Q 1013 4119 1484 4856 
L 1984 4856 
z
" transform="scale(0.015625)"/>
       <path id="DejaVuSans-78" d="M 3513 3500 
L 2247 1797 
L 3578 0 
L 2900 0 
L 1881 1375 
L 863 0 
L 184 0 
L 1544 1831 
L 300 3500 
L 978 3500 
L 1906 2253 
L 2834 3500 
L 3513 3500 
z
" transform="scale(0.015625)"/>
       <path id="DejaVuSans-29" d="M 513 4856 
L 1013 4856 
Q 1481 4119 1714 3412 
Q 1947 2706 1947 2009 
Q 1947 1309 1714 600 
Q 1481 -109 1013 -844 
L 513 -844 
Q 928 -128 1133 580 
Q 1338 1288 1338 2009 
Q 1338 2731 1133 3434 
Q 928 4138 513 4856 
z
" transform="scale(0.015625)"/>
      </defs>
      <use xlink:href="#DejaVuSans-46"/>
      <use xlink:href="#DejaVuSans-28" transform="translate(57.519531 0)"/>
      <use xlink:href="#DejaVuSans-78" transform="translate(96.533203 0)"/>
      <use xlink:href="#DejaVuSans-29" transform="translate(155.712891 0)"/>
     </g>
    </g>
   </g>
  </g>
 </g>
 <defs>
  <clipPath id="p36f961cb13">
   <rect x="46.55" y="24.72" width="806.65" height="509.32"/>
  </clipPath>
 </defs>
</svg>
